<?xml version="1.0" encoding="utf-8"?>
<!-- Generator: Adobe Illustrator 25.3.0, SVG Export Plug-In . SVG Version: 6.00 Build 0)  -->
<svg version="1.1" id="Calque_1" xmlns="http://www.w3.org/2000/svg" xmlns:xlink="http://www.w3.org/1999/xlink" x="0px" y="0px"
	 viewBox="0 0 140 89" style="enable-background:new 0 0 140 89;" xml:space="preserve">
<style type="text/css">
	.st0{clip-path:url(#SVGID_2_);}
	.st1{clip-path:url(#SVGID_4_);}
	.st2{fill:#36ACB8;}
	.st3{clip-path:url(#SVGID_6_);}
	.st4{clip-path:url(#SVGID_8_);}
	.st5{fill:#4A4A4A;}
	.st6{clip-path:url(#SVGID_10_);}
	.st7{clip-path:url(#SVGID_12_);}
	.st8{clip-path:url(#SVGID_14_);}
	.st9{clip-path:url(#SVGID_16_);}
	.st10{clip-path:url(#SVGID_18_);}
	.st11{clip-path:url(#SVGID_20_);}
	.st12{clip-path:url(#SVGID_22_);}
	.st13{clip-path:url(#SVGID_24_);}
	.st14{clip-path:url(#SVGID_26_);}
	.st15{clip-path:url(#SVGID_28_);}
	.st16{fill:#FF7950;}
	.st17{clip-path:url(#SVGID_30_);}
	.st18{clip-path:url(#SVGID_32_);}
	.st19{clip-path:url(#SVGID_34_);}
	.st20{clip-path:url(#SVGID_36_);}
	.st21{fill:#D3DA31;}
	.st22{clip-path:url(#SVGID_38_);}
	.st23{clip-path:url(#SVGID_40_);}
	.st24{clip-path:url(#SVGID_42_);}
	.st25{clip-path:url(#SVGID_44_);}
	.st26{clip-path:url(#SVGID_46_);}
	.st27{clip-path:url(#SVGID_48_);}
	.st28{clip-path:url(#SVGID_50_);}
	.st29{clip-path:url(#SVGID_52_);}
	.st30{clip-path:url(#SVGID_54_);}
	.st31{clip-path:url(#SVGID_56_);}
</style>
<g transform="matrix(1.3333 0 0 -1.3333 0 90.667)">
	<g>
		<defs>
			<path id="SVGID_1_" d="M70.1,18.8c-2.3,1.5-3.4,0.7-3.4,0.7c0.1-1.3,0.8-2.4,1.7-3.2c1.1-0.9,2.5-1.3,4-1.3
				C72.2,16.6,71.4,18,70.1,18.8L70.1,18.8z M36.3,10c-0.9-1.5-1.3-3.3-0.9-5c0,0,1.8-0.5,4.1,2.5c1.4,1.7,1.9,3.9,1.4,6
				C39,12.9,37.4,11.7,36.3,10L36.3,10L36.3,10z M29.2,16.9c-1-0.8-1.6-1.9-1.7-3.2c0,0,1.1-0.7,3.4,0.7c1.3,0.8,2.2,2.2,2.3,3.7
				C31.7,18.2,30.3,17.8,29.2,16.9L29.2,16.9z M50.1,10.9c-1.3-1.1-2-2.7-2.1-4.4c-0.1-1.9,0.6-3.8,1.8-5.2c1.5,1.4,2.3,3.4,2.2,5.4
				C51.8,10.3,50.1,10.9,50.1,10.9L50.1,10.9z M62.4,10.9c-0.3-1.2-0.1-2.5,0.6-3.6c0.8-1.2,2-2.1,3.3-2.4c0.3,1.5,0,3.1-1,4.2
				C63.6,11.3,62.4,10.9,62.4,10.9L62.4,10.9z M70.1,52.6c1.3,0.8,2.2,2.2,2.3,3.7c-1.4,0.1-2.8-0.4-4-1.3c-1-0.8-1.6-1.9-1.7-3.2
				C66.7,51.8,67.8,51,70.1,52.6L70.1,52.6z M30.5,49.6c-0.1,1.5-1,2.9-2.3,3.7c-2.3,1.5-3.4,0.7-3.4,0.7c0.1-1.3,0.8-2.4,1.7-3.2
				C27.6,49.9,29,49.5,30.5,49.6L30.5,49.6z M38,57.7c0.3,1.5,0,3.1-1,4.2c-1.6,2.2-3,1.8-3,1.8c-0.3-1.2-0.1-2.5,0.6-3.6
				C35.4,59,36.6,58.1,38,57.7L38,57.7z M63.4,60.4c1.4,1.6,1.9,3.8,1.4,5.9c-1.9-0.5-3.5-1.7-4.6-3.4c-0.9-1.5-1.3-3.3-0.8-5
				C59.3,57.9,61.1,57.4,63.4,60.4L63.4,60.4z M49.6,63c0.1,1.9-0.6,3.7-2,5c-1.1-1.3-1.7-3-1.6-4.8c0.1-1.6,0.8-3,1.9-4
				C47.9,59.2,49.5,59.7,49.6,63L49.6,63z"/>
		</defs>
		<clipPath id="SVGID_2_">
			<use xlink:href="#SVGID_1_"  style="overflow:visible;"/>
		</clipPath>
		<g class="st0">
			<g>
				<defs>
					<rect id="SVGID_3_" x="-193.2" y="-531.7" width="491.3" height="1063.8"/>
				</defs>
				<clipPath id="SVGID_4_">
					<use xlink:href="#SVGID_3_"  style="overflow:visible;"/>
				</clipPath>
				<g class="st1">
					<path class="st2" d="M19.9,72.9h57.5V-3.7H19.9L19.9,72.9z"/>
				</g>
			</g>
		</g>
	</g>
	<g>
		<defs>
			<polygon id="SVGID_5_" points="11,18.3 5.8,39.8 15,42 15.8,38.7 9.8,37.3 11.2,31.4 15.6,32.4 16.4,29.2 12,28.1 13.5,22.2 
				19.5,23.7 20.3,20.4 			"/>
		</defs>
		<clipPath id="SVGID_6_">
			<use xlink:href="#SVGID_5_"  style="overflow:visible;"/>
		</clipPath>
		<g class="st3">
			<g>
				<defs>
					<rect id="SVGID_7_" x="-193.2" y="-531.7" width="491.3" height="1063.8"/>
				</defs>
				<clipPath id="SVGID_8_">
					<use xlink:href="#SVGID_7_"  style="overflow:visible;"/>
				</clipPath>
				<g class="st4">
					<path class="st5" d="M0.9,46.9h24.3V13.3H0.9V46.9z"/>
				</g>
			</g>
		</g>
	</g>
	<g>
		<defs>
			<path id="SVGID_9_" d="M26.9,21.4c-1.4-0.3-2.8,0.1-4,0.9c-1.2,0.8-1.9,2-2.2,3.4l-2,11.9c-0.3,1.4,0.1,2.8,0.9,4
				c0.8,1.2,2,2,3.4,2.2c1.4,0.2,2.8-0.1,3.9-0.9c1.1-0.8,1.9-2.1,2.1-3.4l0.4-2.5l-3.4-0.6L25.8,39c-0.1,0.5-0.4,1-0.8,1.3
				c-0.4,0.3-0.9,0.4-1.5,0.3c-0.5-0.1-1-0.4-1.2-0.8c-0.3-0.4-0.4-0.9-0.3-1.5l2.1-12c0.1-0.5,0.3-0.9,0.7-1.2
				c0.4-0.3,0.9-0.4,1.4-0.3c0.5,0.1,1,0.3,1.3,0.7c0.3,0.4,0.4,0.9,0.3,1.4l-0.5,3l3.4,0.6l0.5-3.1c0.3-1.4-0.1-2.8-0.9-4
				C29.5,22.4,28.3,21.6,26.9,21.4L26.9,21.4z"/>
		</defs>
		<clipPath id="SVGID_10_">
			<use xlink:href="#SVGID_9_"  style="overflow:visible;"/>
		</clipPath>
		<g class="st6">
			<g>
				<defs>
					<rect id="SVGID_11_" x="-193.2" y="-531.7" width="491.3" height="1063.8"/>
				</defs>
				<clipPath id="SVGID_12_">
					<use xlink:href="#SVGID_11_"  style="overflow:visible;"/>
				</clipPath>
				<g class="st7">
					<path class="st5" d="M13.8,48.8h22.5V16.4H13.8L13.8,48.8z"/>
				</g>
			</g>
		</g>
	</g>
	<g>
		<defs>
			<path id="SVGID_13_" d="M79.9,26.9c-0.1-1.4-0.8-2.7-1.8-3.7c-0.7-0.7-1.6-1.1-2.5-1.2c-0.6-0.1-1.3-0.1-1.9,0
				c-1.2,0.1-2.2,0.6-3.1,1.5c-0.7,0.7-1.1,1.5-1.4,2.4c-0.3,1-0.4,2.1-0.2,3.2l3.2-0.2c-0.1-1,0.1-2,0.6-2.9
				c0.3-0.5,0.7-0.8,1.3-0.8c0.7-0.1,1.4,0.2,1.9,0.8c0.3,0.4,0.5,0.9,0.6,1.4c0.1,1-0.2,2.1-0.8,2.9c-0.6,0.7-1.4,1.8-2.5,3.2
				c-0.8,1-1.4,2-1.9,3.2c-0.3,1-0.4,2.1-0.3,3.2c0.2,1.8,1.2,3.4,2.7,4.2c1,0.5,2.1,0.7,3.2,0.5c1.1-0.1,2.1-0.6,2.9-1.3
				c0.6-0.5,1.1-1.2,1.3-2c0.3-0.8,0.4-1.7,0.3-2.6l-3.2-0.1c0.1,0.8-0.1,1.5-0.5,2.2c-0.3,0.4-0.7,0.7-1.2,0.7
				c-0.6,0.1-1.2-0.1-1.5-0.6c-0.4-0.4-0.6-1-0.6-1.6c-0.1-1.1,0.2-2.3,0.8-3.2c0.4-0.6,0.8-1.1,1.3-1.6c0.5-0.5,0.9-1,1.3-1.6
				c0.6-0.8,1.1-1.7,1.5-2.7c0.1-0.4,0.3-0.7,0.3-1.1C79.9,28.3,80,27.6,79.9,26.9L79.9,26.9z"/>
		</defs>
		<clipPath id="SVGID_14_">
			<use xlink:href="#SVGID_13_"  style="overflow:visible;"/>
		</clipPath>
		<g class="st8">
			<g>
				<defs>
					<rect id="SVGID_15_" x="-193.2" y="-531.7" width="491.3" height="1063.8"/>
				</defs>
				<clipPath id="SVGID_16_">
					<use xlink:href="#SVGID_15_"  style="overflow:visible;"/>
				</clipPath>
				<g class="st9">
					<path class="st5" d="M64.1,49.6h22.4V17H64.1V49.6z"/>
				</g>
			</g>
		</g>
	</g>
	<g>
		<defs>
			<polygon id="SVGID_17_" points="83.9,20.4 80.6,21 85,42.8 88.3,42.1 			"/>
		</defs>
		<clipPath id="SVGID_18_">
			<use xlink:href="#SVGID_17_"  style="overflow:visible;"/>
		</clipPath>
		<g class="st10">
			<g>
				<defs>
					<rect id="SVGID_19_" x="-193.2" y="-531.7" width="491.3" height="1063.8"/>
				</defs>
				<clipPath id="SVGID_20_">
					<use xlink:href="#SVGID_19_"  style="overflow:visible;"/>
				</clipPath>
				<g class="st11">
					<path class="st5" d="M75.7,47.7h17.6V15.5H75.7L75.7,47.7z"/>
				</g>
			</g>
		</g>
	</g>
	<g>
		<defs>
			<path id="SVGID_21_" d="M90.9,24l-2.1-4.8l-3.4,0.8l9.2,20.5l4.5-1.1l-1.9-22.4L93.8,18l0.5,5.1L90.9,24z M95.6,35.2L92.2,27
				l2.4-0.6L95.6,35.2z"/>
		</defs>
		<clipPath id="SVGID_22_">
			<use xlink:href="#SVGID_21_"  style="overflow:visible;"/>
		</clipPath>
		<g class="st12">
			<g>
				<defs>
					<rect id="SVGID_23_" x="-193.2" y="-531.7" width="491.3" height="1063.8"/>
				</defs>
				<clipPath id="SVGID_24_">
					<use xlink:href="#SVGID_23_"  style="overflow:visible;"/>
				</clipPath>
				<g class="st13">
					<path class="st5" d="M80.5,45.5H104V12.2H80.5V45.5z"/>
				</g>
			</g>
		</g>
	</g>
	<g>
		<defs>
			<path id="SVGID_25_" d="M32.9,35.4c0-9.6,7.8-17.4,17.4-17.4c9.6,0,17.4,7.8,17.4,17.4c0,9.6-7.8,17.4-17.4,17.4
				C40.7,52.8,32.9,45,32.9,35.4z M36.1,29.5c-2.4,5.7-1.1,12.4,3.3,16.8c4.4,4.4,11,5.7,16.8,3.4c5.8-2.4,9.5-8,9.5-14.2
				c0-4.1-1.6-8-4.5-10.9c-2.9-2.9-6.8-4.5-10.9-4.5h0C44.1,20,38.5,23.8,36.1,29.5L36.1,29.5z"/>
		</defs>
		<clipPath id="SVGID_26_">
			<use xlink:href="#SVGID_25_"  style="overflow:visible;"/>
		</clipPath>
		<g class="st14">
			<g>
				<defs>
					<rect id="SVGID_27_" x="-193.2" y="-531.7" width="491.3" height="1063.8"/>
				</defs>
				<clipPath id="SVGID_28_">
					<use xlink:href="#SVGID_27_"  style="overflow:visible;"/>
				</clipPath>
				<g class="st15">
					<path class="st16" d="M28,57.7h44.7V13.1H28L28,57.7z"/>
				</g>
			</g>
		</g>
	</g>
	<g>
		<defs>
			<path id="SVGID_29_" d="M37.6,35.4c0-7.1,5.7-12.8,12.8-12.8c7.1,0,12.8,5.7,12.8,12.8c0,7.1-5.7,12.8-12.8,12.8
				C43.3,48.2,37.6,42.5,37.6,35.4z"/>
		</defs>
		<clipPath id="SVGID_30_">
			<use xlink:href="#SVGID_29_"  style="overflow:visible;"/>
		</clipPath>
		<g class="st17">
			<g>
				<defs>
					<rect id="SVGID_31_" x="-193.2" y="-531.7" width="491.3" height="1063.8"/>
				</defs>
				<clipPath id="SVGID_32_">
					<use xlink:href="#SVGID_31_"  style="overflow:visible;"/>
				</clipPath>
				<g class="st18">
					<path class="st2" d="M32.6,53.1H68V17.7H32.6V53.1z"/>
				</g>
			</g>
		</g>
	</g>
	<g>
		<defs>
			<path id="SVGID_33_" d="M39.5,42.2c0.2,0,0.3,0,0.5,0.1c0.3,0.1,0.5,0.3,0.7,0.5c0.2,0.1,0.3,0,0.5,0c0.2-0.1,0.3-0.1,0.5,0.1
				c0.3,0.4-0.1,1.1-0.1,1.6c0,0.1,0,0.2,0.1,0.3C40.8,44,40.1,43.2,39.5,42.2L39.5,42.2z"/>
		</defs>
		<clipPath id="SVGID_34_">
			<use xlink:href="#SVGID_33_"  style="overflow:visible;"/>
		</clipPath>
		<g class="st19">
			<g>
				<defs>
					<rect id="SVGID_35_" x="-193.2" y="-531.7" width="491.3" height="1063.8"/>
				</defs>
				<clipPath id="SVGID_36_">
					<use xlink:href="#SVGID_35_"  style="overflow:visible;"/>
				</clipPath>
				<g class="st20">
					<path class="st21" d="M34.6,49.7h12.1V37.3H34.6V49.7z"/>
				</g>
			</g>
		</g>
	</g>
	<g>
		<defs>
			<path id="SVGID_37_" d="M37.7,37.2c0-0.2-0.1-0.5-0.1-0.8c0-0.1,0-0.1,0-0.2c0-0.3,0-0.6,0-0.9c0-2.2,0.6-4.2,1.5-6
				c0.1,0.1,0.3,0.2,0.4,0.4c0.2,0.3,0.4,0.7,0.6,1c0.4,0.2,0.8,0.5,1.1,0.8c0.1,0.3,0.2,0.6,0.3,0.9c0.1,0.3,0.7,0.7,0.6,1.2
				c-0.2,0.7-1.2,0.8-1.7,1.4c-0.2,0.3-0.5,0.7-0.7,1C39.2,36.6,38.5,37,37.7,37.2C37.7,37.3,37.7,37.2,37.7,37.2L37.7,37.2z"/>
		</defs>
		<clipPath id="SVGID_38_">
			<use xlink:href="#SVGID_37_"  style="overflow:visible;"/>
		</clipPath>
		<g class="st22">
			<g>
				<defs>
					<rect id="SVGID_39_" x="-193.2" y="-531.7" width="491.3" height="1063.8"/>
				</defs>
				<clipPath id="SVGID_40_">
					<use xlink:href="#SVGID_39_"  style="overflow:visible;"/>
				</clipPath>
				<g class="st23">
					<path class="st21" d="M32.6,42.2H47V24.4H32.6V42.2z"/>
				</g>
			</g>
		</g>
	</g>
	<g>
		<defs>
			<path id="SVGID_41_" d="M51.6,44.5c-0.6-0.2-1.2-0.5-1.6-1c-0.3-0.5,0.1-0.8-0.5-1.1c-0.3,0.2-0.7,0.4-0.9,0.6
				c-0.3,0-0.5-0.2-0.7-0.4c0-0.6,0.4-0.7,0.4-1.2c-0.2-0.3-0.8-0.4-0.9-0.7c-0.1-0.3,0-0.9-0.3-1.2c-0.4-0.4-0.8-0.8-1.2-1.2
				c-0.7-1-0.6-2.3,0.2-3.2c0.3-0.3,0.7-0.3,1.2-0.3c0.3,0,0.7,0,1-0.1c0.6-0.2,0.7-1.3,0.8-1.8c0.3-0.8-0.2-1.2-0.2-2
				c0-0.8,0.3-3.1,1.4-3.1c1.3,0,1.5,1.3,2.2,2.2c0.3,0.2,0.6,0.5,0.8,0.8c0,0.4,0,0.9,0,1.3c0.3,0.7,1.2,1,1.6,1.5
				c0.5,0.6,0,0.9,0.3,1.4c0,0,0,0,0,0c0.4,0.2,0.7,0.4,1.2,0.7c0.2,0.2,0.4,0.4,0.6,0.7l0.4,0.1c1.5-0.7,0.9-2.3,2-3.1
				c0.1,0,0.1,0.1,0.2,0.1c0.1,0.2,0.1,0.4,0.1,0.7c0.2,0.7,0.9,1.1,1.5,1c0.5-0.4,0.8-1,1-1.6c0.1-0.6-0.3-0.9-0.3-1.4
				c0-0.4,0.2-0.8,0.4-1.1c0,0,0,0,0,0c0.5,1.3,0.7,2.8,0.7,4.3v0c0,0.2,0,0.4,0,0.6c0,0,0,0.1,0,0.1c-0.2,3.1-1.5,6-3.5,8.1
				c-0.3,0-0.6,0-0.9,0c-1.3-0.2-2.6-0.4-4-0.4c-1.1,0-1.7,0.8-2.7,0.8C51.9,44.6,51.7,44.6,51.6,44.5L51.6,44.5z M51.8,38.6
				c-0.3,0-0.7,0-1,0.1c0,0-1.7,1.3-1.7,1.4c0.1,0.2,0.2,0.3,0.3,0.3c0.4-0.2,0.8-0.4,1.2-0.7l0.7-0.1c0.2-0.2,0.5-0.3,0.7-0.5
				c0.3-0.1,0.6-0.2,0.9-0.2c0,0,0-0.1,0-0.1v-0.2c-0.1,0-0.2-0.1-0.3-0.1C52.3,38.4,52,38.5,51.8,38.6L51.8,38.6z"/>
		</defs>
		<clipPath id="SVGID_42_">
			<use xlink:href="#SVGID_41_"  style="overflow:visible;"/>
		</clipPath>
		<g class="st24">
			<g>
				<defs>
					<rect id="SVGID_43_" x="-193.2" y="-531.7" width="491.3" height="1063.8"/>
				</defs>
				<clipPath id="SVGID_44_">
					<use xlink:href="#SVGID_43_"  style="overflow:visible;"/>
				</clipPath>
				<g class="st25">
					<path class="st21" d="M40.4,49.5H68V22.8H40.4V49.5z"/>
				</g>
			</g>
		</g>
	</g>
	<g>
		<defs>
			<path id="SVGID_45_" d="M54,30.3c-0.5-0.3-0.8-0.7-0.8-1.3c0.1-0.1,0.2-0.3,0.3-0.3c0.5,0.2,1.1,1,0.7,1.5
				C54.2,30.3,54.2,30.3,54,30.3C54.1,30.3,54.1,30.3,54,30.3L54,30.3z"/>
		</defs>
		<clipPath id="SVGID_46_">
			<use xlink:href="#SVGID_45_"  style="overflow:visible;"/>
		</clipPath>
		<g class="st26">
			<g>
				<defs>
					<rect id="SVGID_47_" x="-193.2" y="-531.7" width="491.3" height="1063.8"/>
				</defs>
				<clipPath id="SVGID_48_">
					<use xlink:href="#SVGID_47_"  style="overflow:visible;"/>
				</clipPath>
				<g class="st27">
					<path class="st21" d="M48.3,35.2h11V23.8h-11V35.2z"/>
				</g>
			</g>
		</g>
	</g>
	<g>
		<defs>
			<path id="SVGID_49_" d="M43.6,46.3c0.1-0.1,0.2-0.2,0.2-0.4c-0.2-0.3-0.3-0.7-0.3-1c0-0.2,0.2-0.4,0.3-0.5c0.5,0,1,0.2,1.4,0.5
				c0.5,0.1,1,0.1,1.5,0.2c0.5,0.1,1.5,1,1.2,1.6c-0.2,0.1-0.7,0.2-0.7,0.2c-0.7-0.1-1.4,0-2.1,0.1C44.6,46.8,44.1,46.6,43.6,46.3
				L43.6,46.3z"/>
		</defs>
		<clipPath id="SVGID_50_">
			<use xlink:href="#SVGID_49_"  style="overflow:visible;"/>
		</clipPath>
		<g class="st28">
			<g>
				<defs>
					<rect id="SVGID_51_" x="-193.2" y="-531.7" width="491.3" height="1063.8"/>
				</defs>
				<clipPath id="SVGID_52_">
					<use xlink:href="#SVGID_51_"  style="overflow:visible;"/>
				</clipPath>
				<g class="st29">
					<g>
						<defs>
							<rect id="SVGID_53_" x="35.8" y="36.2" width="19.7" height="18.3"/>
						</defs>
						<clipPath id="SVGID_54_">
							<use xlink:href="#SVGID_53_"  style="overflow:visible;"/>
						</clipPath>
						<g class="st30">
							<g>
								<defs>
									<rect id="SVGID_55_" x="42.1" y="42.8" width="7.9" height="5.2"/>
								</defs>
								<clipPath id="SVGID_56_">
									<use xlink:href="#SVGID_55_"  style="overflow:visible;"/>
								</clipPath>
								<g class="st31">
									<path class="st21" d="M38.6,52h14.2V39.5H38.6V52z"/>
								</g>
							</g>
						</g>
					</g>
				</g>
			</g>
		</g>
	</g>
</g>
</svg>
