<?xml version="1.0" encoding="utf-8"?>
<!-- Generator: Adobe Illustrator 25.3.0, SVG Export Plug-In . SVG Version: 6.00 Build 0)  -->
<svg version="1.1" id="Calque_2_1_" xmlns="http://www.w3.org/2000/svg" xmlns:xlink="http://www.w3.org/1999/xlink" x="0px"
	 y="0px" viewBox="0 0 140 89" style="enable-background:new 0 0 140 89;" xml:space="preserve">
<style type="text/css">
	.st0{fill:#FEFEFE;}
	.st1{fill:#F8AE3B;}
</style>
<g>
	<g>
		<polyline class="st0" points="97.1,4.8 95,17.1 109.6,20.7 109.6,34.1 122.8,33.7 122.1,46.8 136.7,46 139.5,5.3 97.6,4.8 
			139.5,5.3 		"/>
		<path class="st1" d="M105.7,84.8H84.3c-0.2,0-0.4-0.2-0.4-0.4l0,0c0-12.8,0-25.6,0-38.4c0-8.2-6.2-15.7-14.1-18
			c-8.8-2.5-17.7-1.3-26.6-1.3c-4.1,0-8.3,1.3-12.4,2.3c-1.1,0.3-2.7,1.4-2.8,2.2c-0.6,3.8-0.7,7.6-1,10.8c0,0.2,0.1,0.4,0.3,0.4
			c0,0,0,0,0.1,0c8.6-0.7,16.7-1.7,24.9-1.8c10.3-0.2,14.6,4.8,13.3,13.8l-0.3,0.3c-6.8,0.9-13.5,1.7-20.2,2.9
			C33,59.9,21.8,70.3,23.9,84.4c0,0.2-0.1,0.4-0.3,0.4c0,0,0,0-0.1,0H0.2c-0.2,0-0.4-0.2-0.4-0.4l0,0C-0.2,71-0.1,57.5-0.3,44
			c-0.1-5.5,1.1-10.7,3.1-15.7C8.3,15.3,22.6,4,37.9,4.6C55,5.3,72.2,4.8,89.3,4.8h4.1c0.2,0,0.4,0.2,0.4,0.4c0,0,0,0,0,0.1
			c-0.6,4.3-1.1,8.2-1.7,12.4c0,0.2,0.1,0.4,0.3,0.4c3.7,1.2,7.6,2.6,11.5,3.6c2.3,0.6,2.8,1.7,2.8,3.8c-0.1,3.8,0,7.7,0,11.8
			c0,0.2,0.2,0.4,0.4,0.4h12.6c0.2,0,0.4,0.2,0.4,0.4v11.8c0,0.2,0.2,0.4,0.4,0.4c0,0,0,0,0,0h15.5c0.2,0,0.4,0.2,0.4,0.4
			c0,0,0,0,0,0c-0.4,6.8-3,12.6-6.8,18.1C123.5,77,115.6,82.3,105.7,84.8C105.8,84.8,105.8,84.8,105.7,84.8z"/>
	</g>
	<path class="st0" d="M24.3,84.8c-0.2,0-0.3-0.1-0.4-0.3C21.7,70.4,33,59.9,45.1,57.7c6.7-1.2,13.5-1.9,20.2-2.9l0.3-0.3
		c1.4-9-3-14-13.3-13.8c-8.2,0.1-16.3,1.1-24.9,1.8c-0.2,0-0.4-0.1-0.4-0.3c0,0,0,0,0-0.1c0.2-3.2,0.4-7,1-10.8
		c0.1-0.9,1.7-2,2.8-2.2c4.1-1,8.3-2.3,12.4-2.3c8.8,0,17.8-1.2,26.6,1.3C77.8,30.3,84,37.8,84,46c0,12.8,0,25.6,0,38.4
		c0,0.2-0.2,0.4-0.4,0.4l0,0H63.9c-0.2,0-0.4-0.2-0.4-0.4c0-0.1,0-0.2,0.1-0.3c1-0.8,2.1-1.7,2.2-2.6c0.3-4.9,0.1-9.9,0.1-15.3
		c0-0.2-0.2-0.4-0.4-0.4c0,0,0,0,0,0c-4.7,0.4-8.8,0.3-12.8,1.2c-10.4,2.4-13.9,9.3-8.9,17.1c0.1,0.2,0.1,0.4-0.1,0.5
		c-0.1,0-0.1,0.1-0.2,0.1L24.3,84.8z"/>
	<path class="st1" d="M44.4,84.8c-0.1,0-0.2-0.1-0.3-0.2c-5.3-8-1.9-15.1,8.7-17.5c4-0.9,8.1-0.8,12.8-1.2c0.2,0,0.4,0.1,0.4,0.3
		c0,0,0,0,0,0c0,5.4,0.2,10.4-0.1,15.3c-0.1,1.1-1.9,2.1-2.9,3.2H44.4z"/>
</g>
</svg>
