<?xml version="1.0" encoding="utf-8"?>
<!-- Generator: Adobe Illustrator 25.3.0, SVG Export Plug-In . SVG Version: 6.00 Build 0)  -->
<svg version="1.1" id="Calque_1" xmlns="http://www.w3.org/2000/svg" xmlns:xlink="http://www.w3.org/1999/xlink" x="0px" y="0px"
	 viewBox="0 0 100 100" style="enable-background:new 0 0 100 100;" xml:space="preserve">
<style type="text/css">
	.st0{fill:#E3E3E3;}
	.st1{opacity:0.1;fill:#231F20;enable-background:new    ;}
	.st2{fill:#D54B3D;}
	.st3{fill:#D72B27;}
	.st4{fill:url(#SVGID_1_);}
</style>
<g>
	<path class="st0" d="M93.7,87.3h-87c-3.4,0-6.2-2.8-6.2-6.2V18.2c0-3.4,2.8-6.2,6.2-6.2h87c3.4,0,6.2,2.8,6.2,6.2V81
		C99.9,84.5,97.1,87.3,93.7,87.3L93.7,87.3z"/>
	<path class="st1" d="M12.9,87.3l37.2-29.9l0.3-1.6L12,28.1l-0.1,57.8L12.9,87.3z"/>
	<path class="st2" d="M6.6,87.3c-3.5,0-6.2-2.8-6.2-6.2V18.1c0-3.5,2.8-4.1,6.2-4.1s6.2,0.7,6.2,4.1v69.2H6.6L6.6,87.3z"/>
	<path class="st3" d="M6.6,14.9c4.4,0,5.3,1.3,5.3,3.2v68.3H6.6c-2.9,0-5.3-2.4-5.3-5.3V18.1C1.3,16.1,2.2,14.9,6.6,14.9L6.6,14.9z
		 M6.6,14c-3.5,0-6.2,0.7-6.2,4.1V81c0,3.5,2.8,6.2,6.2,6.2h6.2V18.1C12.9,14.6,10.1,14,6.6,14L6.6,14L6.6,14z"/>
	<path class="st2" d="M93.7,87.3h-6.2V17.9c0-3.5,2.8-3.9,6.2-3.9c3.5,0,6.2,0.4,6.2,3.9v63.2C99.9,84.5,97.1,87.3,93.7,87.3
		L93.7,87.3z"/>
	<path class="st3" d="M93.7,14.9c4,0,5.3,0.8,5.3,3v63.2c0,2.9-2.4,5.3-5.3,5.3h-5.3V17.9C88.3,15.6,89.7,14.9,93.7,14.9L93.7,14.9z
		 M93.7,14c-3.5,0-6.2,0.4-6.2,3.9v69.4h6.2c3.5,0,6.2-2.8,6.2-6.2V17.9C99.9,14.5,97.1,14,93.7,14L93.7,14L93.7,14z"/>
	
		<linearGradient id="SVGID_1_" gradientUnits="userSpaceOnUse" x1="-19.9235" y1="93.8321" x2="-19.5328" y2="93.8321" gradientTransform="matrix(253.1598 0 0 -174.8345 5044.7764 16458.207)">
		<stop  offset="0" style="stop-color:#000000;stop-opacity:0.1"/>
		<stop  offset="1" style="stop-color:#000000;stop-opacity:0.2"/>
	</linearGradient>
	<path class="st4" d="M67,87.3L0.9,20.7l3.5,1.4l46,33.1L99.9,19l0,62.2c0,3.4-2.8,6.1-6.2,6.1H67z"/>
	<path class="st2" d="M50.1,57.3l-47-34.1c-2.8-2-3.6-5.9-1.5-8.7s6-3.4,8.9-1.3l39.7,28.9l40-29.2c2.8-2,6.7-1.4,8.7,1.4
		c2,2.8,1.4,6.7-1.4,8.7L50.1,57.3L50.1,57.3z"/>
	<path class="st3" d="M93.7,12.5L93.7,12.5c1.7,0,3.3,0.8,4.4,2.2c1.7,2.4,1.2,5.7-1.2,7.5L50.1,56.3L3.6,22.5
		c-2.4-1.8-3-5.1-1.3-7.5c1-1.3,2.7-2.2,4.4-2.2c1.2,0,2.3,0.4,3.2,1.1l39.6,28.8l0.5,0.4l0.5-0.4l39.9-29.2
		C91.4,12.9,92.5,12.5,93.7,12.5L93.7,12.5z M93.7,11.6c-1.2,0-2.6,0.4-3.6,1.2L50.1,42L10.4,13.1C9.3,12.3,8,12,6.6,12
		c-2,0-3.9,0.9-5.1,2.6c-2,2.8-1.2,6.7,1.6,8.7l47,34.2L97.3,23c2.8-2,3.4-5.9,1.4-8.7C97.5,12.5,95.6,11.6,93.7,11.6L93.7,11.6
		L93.7,11.6z"/>
</g>
</svg>
