<?xml version="1.0" encoding="utf-8"?>
<!-- Generator: Adobe Illustrator 25.3.0, SVG Export Plug-In . SVG Version: 6.00 Build 0)  -->
<svg version="1.1" id="Calque_1" xmlns="http://www.w3.org/2000/svg" xmlns:xlink="http://www.w3.org/1999/xlink" x="0px" y="0px"
	 viewBox="0 0 140 89" style="enable-background:new 0 0 140 89;" xml:space="preserve">
<style type="text/css">
	.st0{fill:#EA4335;}
	.st1{fill:#FBBC05;}
	.st2{fill:#4285F4;}
	.st3{fill:#34A853;}
</style>
<g>
	<path class="st0" d="M59.9,44.3c0,6.6-5.1,11.4-11.4,11.4s-11.4-4.8-11.4-11.4c0-6.6,5.1-11.4,11.4-11.4S59.9,37.7,59.9,44.3z
		 M54.9,44.3c0-4.1-3-6.9-6.4-6.9c-3.5,0-6.4,2.8-6.4,6.9c0,4.1,3,6.9,6.4,6.9C51.9,51.2,54.9,48.4,54.9,44.3z"/>
	<path class="st1" d="M84.6,44.3c0,6.6-5.1,11.4-11.4,11.4c-6.3,0-11.4-4.8-11.4-11.4c0-6.6,5.1-11.4,11.4-11.4
		C79.5,32.9,84.6,37.7,84.6,44.3z M79.6,44.3c0-4.1-3-6.9-6.4-6.9c-3.5,0-6.4,2.8-6.4,6.9c0,4.1,3,6.9,6.4,6.9
		C76.6,51.2,79.6,48.4,79.6,44.3z"/>
	<path class="st2" d="M108.2,33.6v20.5c0,8.4-5,11.9-10.8,11.9c-5.5,0-8.8-3.7-10.1-6.7l4.4-1.8c0.8,1.9,2.7,4,5.7,4
		c3.8,0,6.1-2.3,6.1-6.7v-1.6h-0.2c-1.1,1.4-3.3,2.6-6,2.6c-5.7,0-10.9-5-10.9-11.3c0-6.4,5.2-11.4,10.9-11.4c2.7,0,4.9,1.2,6,2.5
		h0.2v-1.9L108.2,33.6L108.2,33.6z M103.8,44.3c0-4-2.7-6.9-6.1-6.9c-3.5,0-6.3,2.9-6.3,6.9c0,4,2.9,6.9,6.3,6.9
		C101.1,51.2,103.8,48.3,103.8,44.3z"/>
	<path class="st3" d="M116.1,21.6V55h-4.9V21.6H116.1z"/>
	<path class="st0" d="M135.1,48.1l3.9,2.6c-1.3,1.9-4.3,5.1-9.5,5.1c-6.5,0-11.3-5-11.3-11.4c0-6.8,4.9-11.4,10.7-11.4
		c5.9,0,8.8,4.7,9.8,7.2l0.5,1.3l-15.2,6.3c1.2,2.3,3,3.5,5.5,3.5C132,51.2,133.8,50,135.1,48.1L135.1,48.1z M123.1,44l10.2-4.2
		c-0.6-1.4-2.2-2.4-4.2-2.4C126.5,37.3,123,39.6,123.1,44z"/>
	<path class="st2" d="M18.6,41.3v-4.8h16.3c0.2,0.8,0.2,1.8,0.2,2.9c0,3.6-1,8.1-4.2,11.3c-3.1,3.2-7.1,5-12.3,5
		c-9.8,0-18-7.9-18-17.7s8.2-17.7,18-17.7c5.4,0,9.2,2.1,12.1,4.9l-3.4,3.4c-2.1-1.9-4.9-3.5-8.7-3.5c-7.1,0-12.7,5.7-12.7,12.9
		s5.6,12.9,12.7,12.9c4.6,0,7.2-1.9,8.9-3.5c1.4-1.4,2.3-3.3,2.6-6L18.6,41.3z"/>
</g>
</svg>
