<?xml version="1.0" encoding="utf-8"?>
<!-- Generator: Adobe Illustrator 25.3.0, SVG Export Plug-In . SVG Version: 6.00 Build 0)  -->
<svg version="1.1" id="Calque_1" xmlns:serif="http://www.serif.com/"
	 xmlns="http://www.w3.org/2000/svg" xmlns:xlink="http://www.w3.org/1999/xlink" x="0px" y="0px" viewBox="0 0 140 89"
	 style="enable-background:new 0 0 140 89;" xml:space="preserve">
<style type="text/css">
	.st0{fill-rule:evenodd;clip-rule:evenodd;fill:#FF4500;}
	.st1{fill:#222222;}
	.st2{fill:#FFFFFF;}
</style>
<g id="Artwork">
	<g>
		<circle class="st0" cx="126.4" cy="36.8" r="3"/>
		<path class="st1" d="M82.9,49.8c1.5,0,2.4-1.1,2.3-2.2c0-0.6-0.1-0.9-0.1-1.2c-0.9-4-4.1-6.9-8-6.9c-4.5,0-8.2,4.1-8.2,9.2
			s3.7,9.2,8.2,9.2c2.8,0,4.9-1,6.4-2.7c0.7-0.8,0.6-2-0.3-2.6c-0.7-0.5-1.6-0.3-2.3,0.2c-0.6,0.5-1.8,1.6-3.8,1.6
			c-2.3,0-4.3-2-4.7-4.6L82.9,49.8L82.9,49.8z M77,43c2.1,0,3.9,1.6,4.5,3.8h-9C73.2,44.5,75,43,77,43z"/>
		<path class="st1" d="M69,41.3c0-0.9-0.6-1.6-1.4-1.7c-2.5-0.4-4.9,0.5-6.2,2.2v-0.2c0-1.1-0.9-1.7-1.7-1.7c-0.9,0-1.7,0.8-1.7,1.7
			v14.1c0,0.9,0.7,1.7,1.6,1.8c1,0.1,1.8-0.7,1.8-1.7v-7.3c0-3.2,2.4-5.9,5.8-5.5c0.1,0,0.2,0,0.3,0C68.3,42.9,69,42.2,69,41.3z"/>
		<path class="st1" d="M128.1,43.1c0-0.9-0.8-1.7-1.7-1.7c-0.9,0-1.7,0.8-1.7,1.7c0,0.1,0,12.1,0,12.6c0,0.9,0.8,1.7,1.7,1.7
			c0.9,0,1.7-0.8,1.7-1.7C128.1,55.2,128.1,43.2,128.1,43.1z"/>
		<path class="st1" d="M102.5,33.6c0-0.9-0.8-1.7-1.7-1.7c-0.9,0-1.7,0.8-1.7,1.7v7.7c-1.2-1.2-2.6-1.8-4.4-1.8
			c-4.5,0-8.2,4.1-8.2,9.2s3.7,9.2,8.2,9.2c1.8,0,3.3-0.6,4.4-1.8c0.1,0.8,0.9,1.4,1.7,1.4c0.9,0,1.7-0.8,1.7-1.7V33.6z M94.7,54.4
			c-2.6,0-4.8-2.6-4.8-5.8c0-3.2,2.1-5.8,4.8-5.8s4.8,2.6,4.8,5.8S97.3,54.4,94.7,54.4z"/>
		<path class="st1" d="M120.5,33.6c0-0.9-0.8-1.7-1.7-1.7c-0.9,0-1.7,0.8-1.7,1.7v7.7c-1.2-1.2-2.6-1.8-4.4-1.8
			c-4.5,0-8.2,4.1-8.2,9.2s3.7,9.2,8.2,9.2c1.8,0,3.2-0.6,4.4-1.8c0.1,0.8,0.9,1.4,1.7,1.4c0.9,0,1.7-0.8,1.7-1.7V33.6z M112.6,54.4
			c-2.6,0-4.8-2.6-4.8-5.8c0-3.2,2.1-5.8,4.8-5.8c2.6,0,4.8,2.6,4.8,5.8S115.3,54.4,112.6,54.4z"/>
		<path class="st1" d="M136.9,55.8V43h1.5c0.8,0,1.5-0.6,1.6-1.4c0.1-0.9-0.7-1.6-1.5-1.6h-1.6v-2.4c0-0.9-0.7-1.7-1.6-1.8
			c-1-0.1-1.8,0.7-1.8,1.7v2.5H132c-0.8,0-1.5,0.6-1.6,1.4c-0.1,0.9,0.7,1.6,1.5,1.6h1.5v12.8c0,0.9,0.8,1.7,1.7,1.7
			C136.1,57.5,136.9,56.7,136.9,55.8z"/>
	</g>
	<g>
		<circle class="st0" cx="24.2" cy="44.3" r="24.1"/>
		<path class="st2" d="M40.2,44.3c0-2-1.6-3.5-3.5-3.5c-0.9,0-1.8,0.4-2.4,1c-2.4-1.7-5.7-2.8-9.4-3l1.6-7.5l5.2,1.1
			c0.1,1.3,1.2,2.4,2.5,2.4c1.4,0,2.5-1.1,2.5-2.5c0-1.4-1.1-2.5-2.5-2.5c-1,0-1.8,0.6-2.2,1.4L26.1,30c-0.2,0-0.3,0-0.5,0.1
			c-0.1,0.1-0.2,0.2-0.3,0.4l-1.8,8.4c-3.7,0.1-7.1,1.2-9.5,3c-0.6-0.6-1.5-1-2.4-1c-2,0-3.5,1.6-3.5,3.5c0,1.4,0.9,2.6,2.1,3.2
			c-0.1,0.3-0.1,0.7-0.1,1.1c0,5.4,6.3,9.8,14.1,9.8s14.1-4.4,14.1-9.8c0-0.3,0-0.7-0.1-1.1C39.4,47,40.2,45.8,40.2,44.3z
			 M16.1,46.8c0-1.4,1.1-2.5,2.5-2.5c1.4,0,2.5,1.1,2.5,2.5c0,1.4-1.1,2.5-2.5,2.5C17.3,49.4,16.1,48.2,16.1,46.8z M30.1,53.5
			c-1.7,1.7-5,1.8-6,1.8c-1,0-4.3-0.1-6-1.8c-0.3-0.3-0.3-0.7,0-0.9c0.3-0.3,0.7-0.3,0.9,0c1.1,1.1,3.4,1.5,5,1.5c1.6,0,4-0.4,5-1.5
			c0.3-0.3,0.7-0.3,0.9,0C30.4,52.8,30.4,53.2,30.1,53.5z M29.7,49.4c-1.4,0-2.5-1.1-2.5-2.5c0-1.4,1.1-2.5,2.5-2.5
			c1.4,0,2.5,1.1,2.5,2.5C32.2,48.2,31.1,49.4,29.7,49.4z"/>
	</g>
</g>
</svg>
