<?xml version="1.0" encoding="utf-8"?>
<!-- Generator: Adobe Illustrator 25.3.0, SVG Export Plug-In . SVG Version: 6.00 Build 0)  -->
<svg version="1.1"
	 id="svg2" xmlns:cc="http://creativecommons.org/ns#" xmlns:dc="http://purl.org/dc/elements/1.1/" xmlns:inkscape="http://www.inkscape.org/namespaces/inkscape" xmlns:rdf="http://www.w3.org/1999/02/22-rdf-syntax-ns#" xmlns:sodipodi="http://sodipodi.sourceforge.net/DTD/sodipodi-0.dtd" xmlns:svg="http://www.w3.org/2000/svg"
	 xmlns="http://www.w3.org/2000/svg" xmlns:xlink="http://www.w3.org/1999/xlink" x="0px" y="0px" viewBox="0 0 140 89"
	 style="enable-background:new 0 0 140 89;" xml:space="preserve">
<style type="text/css">
	.st0{fill:#33CCFF;}
</style>
<sodipodi:namedview  bordercolor="#666666" borderopacity="1.0" fit-margin-bottom="0" fit-margin-left="0" fit-margin-right="0" fit-margin-top="0" id="base" inkscape:current-layer="g4147" inkscape:cx="234.00027" inkscape:cy="54.652165" inkscape:document-units="px" inkscape:pageopacity="0.0" inkscape:pageshadow="2" inkscape:window-height="705" inkscape:window-maximized="1" inkscape:window-width="1366" inkscape:window-x="-8" inkscape:window-y="-8" inkscape:zoom="1.4142136" pagecolor="#ffffff" showgrid="false">
	</sodipodi:namedview>
<g id="layer1" transform="translate(-50.461389,-83.56061)" inkscape:groupmode="layer" inkscape:label="Capa 1">
	<g id="g4147" transform="translate(394.28571,-405.71429)">
		
			<path id="path4223" inkscape:connector-curvature="0" sodipodi:nodetypes="csccsscssssscssccsscccsssccccssssssccssscccssscsscccsssssscccssssscsssscsscsscccscccsccsssscsssssscscccsssssssscscccccccssscscssssssssssssscssssssss" class="st0" d="
			M-335.8,578.3c-2.9-0.8-5.6-3-6.9-5.7c-1-2.1-1-2.1-1-11.8c-0.1-8.4-0.1-8.6,0.5-9.4c1.2-2,3.8-2.4,5.5-0.9
			c1.2,1.1,1.3,1.4,1.3,4.9v3h5c3.1,0,5.3,0.1,5.8,0.2c2.6,0.6,3.6,3.7,1.8,5.7c-0.2,0.2-0.7,0.6-1,0.7c-0.6,0.3-0.8,0.3-6.1,0.4
			l-5.5,0v1.3c0,1.9,0.2,2.6,1.1,3.5c1.1,1.1,1.3,1.1,6.3,1.1c4.4,0,4.2,0,5.1,0.4c2.1,1,2.7,3.7,1.1,5.5c-1.2,1.4-0.9,1.4-6.9,1.4
			C-334.2,578.6-334.9,578.6-335.8,578.3L-335.8,578.3z M-314.5,577.5c-2.1-0.5-4.3-2.1-5.7-4.2c-1.2-1.9-1.5-3.2-1.5-8.2
			c0-4.3,0.1-4.8,0.9-5.7c0.8-0.8,1.2-1,2.4-1c0.9,0,1.1,0.1,1.7,0.4c0.4,0.3,0.8,0.7,1.1,1.1c0.5,0.9,0.4,1.3,0.5,5
			c0.1,4.2,0.1,4.3,0.4,4.8c1.1,1.7,3.3,2,4.8,0.5c0.9-0.8,0.9-1.3,0.9-5.7c0-3.6,0-3.8,0.3-4.4c0.6-1.1,1.4-1.7,2.6-1.9
			c1.3-0.2,2.7,0.6,3.3,1.8c0.3,0.5,0.3,0.8,0.4,4.8c0,3.4,0.1,4.4,0.5,4.8c1,1.5,3.2,1.9,4.5,0.7c1-0.8,1-0.8,1-5.5
			c0.1-4,0.1-4.3,0.4-4.8c1.2-2.3,4.3-2.4,5.7-0.3c0.9,1.2,0.5,3.8,0.5,5.4c0.1,2.2-0.1,5-0.4,5.8c-1,2.9-3.3,5.2-6.1,6.1
			c-1.3,0.4-4,0.5-5.3,0.2c-1.2-0.3-2.2-0.8-3.2-1.5l-0.8-0.6l-0.8,0.6c-1,0.7-2,1.2-3.1,1.5C-310.8,577.8-313.4,577.8-314.5,577.5
			L-314.5,577.5z M-285.6,577.6c-0.6-0.3-1.4-1-1.8-1.7c-0.3-0.6-0.3-0.6-0.3-7.7c0-6.8,0-7.2,0.3-7.7c1.1-2.2,3.9-2.7,5.6-1
			c1.1,1.1,1.1,1,1,8.9c0,6.8,0,7-0.3,7.5c-0.4,0.7-1.1,1.4-1.7,1.7C-283.5,577.8-285,577.8-285.6,577.6L-285.6,577.6z
			 M-271.2,578.3c-3.3-0.9-6.2-3.5-7.4-6.7c-0.7-1.7-0.7-2.6-0.7-11.2c0-7.9,0.1-8.1,0.4-8.7c1.6-2.9,5.9-2.5,6.8,0.6
			c0.2,0.5,0.2,1.5,0.2,3.4v2.7l3.5,0.1c3.3,0,3.6,0.1,4.1,0.4c2.6,1.4,2.6,4.8,0,6.2c-0.6,0.3-0.8,0.3-4.1,0.4l-3.5,0l0,1.7
			c0.1,2,0.3,2.6,1.3,3.4c0.9,0.7,1.4,0.8,3.9,0.8c2,0,2.3,0,3,0.4c2.8,1.3,2.8,5.3,0,6.6C-264.5,578.7-269.7,578.7-271.2,578.3
			L-271.2,578.3z M-253.3,577.1c-3.4-0.9-6.2-3.8-7.1-7.2c-0.2-0.8-0.2-1.7-0.2-8.6c0.1-7.2-0.3-6.9,0.4-8.4
			c0.8-1.5,2.4-2.1,4.1-1.6c0.7,0.2,1.9,1.4,2.1,2.1c0.1,0.3,0.1,1.7,0.1,3.1l0,2h3c3.5,0,4.4,0.1,5.2,0.7c1.8,1.3,1.8,4.2,0.1,5.5
			c-0.9,0.6-1.7,0.8-5.2,0.8h-3.1v1.2c0,1.6,0.2,2.3,0.8,3c0.9,1,1.2,1.1,4,1.2c2.4,0.1,2.4,0.1,3.1,0.5c0.8,0.5,1.5,1.5,1.6,2.3
			c0.2,1.2-0.4,2.6-1.6,3.3l-0.6,0.4l-2.9,0C-252,577.3-252.6,577.3-253.3,577.1L-253.3,577.1z M-235.6,577.9c-2-0.5-3.5-1.5-5-3
			c-1.8-1.9-2.6-4-2.6-6.7c0-1.7,0.3-3,1-4.3c0.7-1.5,1.5-2.4,2.6-3.2c3.3-2.3,9.1-2.5,12.8-0.3c1.3,0.8,2.7,2.3,3.4,3.6
			c1.4,2.7,1.2,5.2-0.3,6c-0.5,0.3-0.8,0.3-6.4,0.3l-5.9,0v0.4c0,0.6,0.9,1.3,1.9,1.6c0.7,0.2,1.5,0.2,4.6,0.2c2.1,0,4,0.1,4.3,0.1
			c2.4,0.7,2.9,3.8,0.8,5.1c-0.7,0.5-1.1,0.3-5.5,0.3C-233.7,578.1-235.1,578.1-235.6,577.9L-235.6,577.9z M-229.8,565
			c-0.3-0.9-1-1.4-2.4-1.7c-1.5-0.3-3.5,0.3-3.9,1.2c-0.2,0.4-0.3,0.8-0.3,0.8s1.2,0,3.4,0h3.3L-229.8,565z M-219.3,577.5
			c-0.7-0.4-1.5-1.3-1.7-2c-0.1-0.4-0.1-1.9-0.1-4.8c0.1-4.1,0.1-4.2,0.4-5.3c1-3,3.6-5.4,6.7-6.2c1.1-0.3,6.3-0.4,7.5-0.2
			c1.6,0.3,2.6,1.5,2.6,3.1c0,1.3-0.6,2.3-1.7,2.9c-0.5,0.3-0.8,0.3-3.8,0.4c-3.1,0.1-3.3,0.1-3.8,0.4c-0.7,0.4-1.1,1-1.3,1.8
			c-0.1,0.3-0.2,2-0.2,4.2c0,3.6,0,3.6-0.4,4.4c-0.2,0.5-0.6,0.9-1,1.2c-0.6,0.4-0.8,0.5-1.7,0.5
			C-218.6,577.8-218.9,577.7-219.3,577.5L-219.3,577.5z M-285.7,556.4c-2.2-1.1-2.6-4-0.8-5.6c0.7-0.6,1.3-0.8,2.3-0.8
			c1.4,0,2.5,0.6,3.1,1.9C-279.7,554.7-282.8,557.9-285.7,556.4L-285.7,556.4z"/>
	</g>
</g>
<g id="Logo_1_">
	<path id="white_background" class="st0" d="M93.5,17.9c0,0.5,0,1,0,1.5c0,15.8-12,34-34,34v0c-6.5,0-12.9-1.9-18.3-5.4
		c0.9,0.1,1.9,0.2,2.8,0.2c5.4,0,10.6-1.8,14.9-5.1c-5.1-0.1-9.6-3.4-11.2-8.3c1.8,0.3,3.6,0.3,5.4-0.2c-5.6-1.1-9.6-6-9.6-11.7
		c0-0.1,0-0.1,0-0.2c1.7,0.9,3.5,1.4,5.4,1.5c-5.3-3.5-6.9-10.5-3.7-16c6.1,7.5,15,12,24.6,12.5c-1-4.2,0.4-8.5,3.5-11.4
		c4.8-4.5,12.4-4.3,16.9,0.5C93,9.4,95.6,8.4,97.9,7c-0.9,2.8-2.8,5.1-5.3,6.6c2.4-0.3,4.7-0.9,6.9-1.9
		C97.9,14.2,95.9,16.2,93.5,17.9z"/>
</g>
</svg>
