<?xml version="1.0" encoding="utf-8"?>
<!-- Generator: Adobe Illustrator 25.3.0, SVG Export Plug-In . SVG Version: 6.00 Build 0)  -->
<svg version="1.1"
	 id="svg3355" xmlns:cc="http://creativecommons.org/ns#" xmlns:dc="http://purl.org/dc/elements/1.1/" xmlns:rdf="http://www.w3.org/1999/02/22-rdf-syntax-ns#" xmlns:svg="http://www.w3.org/2000/svg"
	 xmlns="http://www.w3.org/2000/svg" xmlns:xlink="http://www.w3.org/1999/xlink" x="0px" y="0px" viewBox="0 0 140 89"
	 style="enable-background:new 0 0 140 89;" xml:space="preserve">
<style type="text/css">
	.st0{fill-rule:evenodd;clip-rule:evenodd;fill:#6441A5;}
</style>
<g id="g3363" transform="matrix(1.3333333,0,0,-1.3333333,-180.53426,935.79824)">
	<g id="g3365" transform="translate(420.064,651.1567)">
		<path id="path3367" class="st0" d="M-197.1,34.1l-4.2-4.2h-6.6l-3.6-3.6v3.6h-5.4v17.4h19.8V34.1z M-219.3,49.7l-1.2-4.8V23.3h5.4
			v-3h3l3,3h4.8l9.6,9.6v16.8H-219.3L-219.3,49.7z"/>
	</g>
	<path id="path3369" class="st0" d="M209.8,686.5h2.4v7.2h-2.4V686.5z M216.4,686.5h2.4v7.2h-2.4V686.5z"/>
	<g id="g3371" transform="translate(468.8057,565.3643)">
		<path id="path3373" class="st0" d="M-230.8,93.5l-4.2,4.2h-7.8v5.4h-6.6V78.5h6.6v12.6h5.4V78.5h6.6V93.5z M-251.8,97.7H-262
			l-4.2-4.2V82.7l4.2-4.2h10.2v6.6h-7.8v6h7.8C-251.8,91.1-251.8,97.7-251.8,97.7z M-268.6,97.7h-5.4v5.4h-6.6V82.7l4.2-4.2h7.8v6.6
			h-5.4v6h5.4V97.7L-268.6,97.7z M-283,103.1h-6.6v-3h6.6V103.1z M-283,97.7h-6.6V78.5h6.6V97.7z M-292,97.7h-6.6V85.1h-2.4v12.6
			h-6.6V85.1h-2.4v12.6h-6.6V78.5h20.4l4.2,4.2V97.7L-292,97.7z M-319,97.7h-5.4v5.4h-6.6V82.7l4.2-4.2h7.8v6.6h-5.4v6h5.4V97.7
			L-319,97.7z M-228.4,94.7v-18l-9-6h-6v3l-4.2-3h-5.4v3l-3-3h-9.6l-3,3l-0.6-3h-8.4l-3.4,3l-0.2-3h-9.5l-0.3,3l-2.6-3h-14.5l-3,1.2
			v-1.2h-7.8l-9,5.4l-5.4,5.4v24h11.4l5.4-5.4h24.6v5.4h20.4v-5.4h5.4v-3l3,3h6l5.4,5.4h11.4v-5.4h6.6L-228.4,94.7z"/>
	</g>
</g>
</svg>
