<?xml version="1.0" encoding="utf-8"?>
<!-- Generator: Adobe Illustrator 25.3.0, SVG Export Plug-In . SVG Version: 6.00 Build 0)  -->
<svg version="1.1" id="Calque_1" xmlns:v="https://vecta.io/nano"
	 xmlns="http://www.w3.org/2000/svg" xmlns:xlink="http://www.w3.org/1999/xlink" x="0px" y="0px" viewBox="0 0 140 89"
	 style="enable-background:new 0 0 140 89;" xml:space="preserve">
<style type="text/css">
	.st0{fill:#FFFFFF;}
	.st1{fill:#E8E0E0;}
	.st2{fill:#CD201F;}
</style>
<g>
	<path class="st0" d="M86,43.2c-8.3-4.4-16.2-8.5-24.3-12.7v25.4C70.2,51.2,79.2,47,86,43.2C86,43.2,86,43.2,86,43.2z"/>
	<path class="st1" d="M86,43.2c-8.3-4.4-24.3-12.7-24.3-12.7l21.4,14.4C83.1,44.8,79.2,47,86,43.2z"/>
	<path class="st2" d="M63.2,75.7c-17.2-0.3-23.1-0.6-26.7-1.3c-2.4-0.5-4.6-1.6-6.1-3.2c-1.2-1.2-2.2-3-2.9-5.6
		c-0.6-2.1-0.9-3.9-1.2-8.2c-0.5-9.8-0.7-17.7,0-26.6c0.6-4.9,0.8-10.8,4.5-14.2c1.7-1.6,3.8-2.6,6-3c3.5-0.7,18.6-1.2,34.2-1.2
		c15.6,0,30.7,0.5,34.2,1.2c2.8,0.5,5.5,2.1,7,4.2c3.4,5.3,3.4,11.8,3.8,17c0.1,2.4,0.1,16.3,0,18.8c-0.5,8.1-1,11-2.2,14
		c-0.7,1.9-1.4,2.9-2.5,4c-1.7,1.7-3.9,2.8-6.3,3.2C90.2,75.7,77.6,76,63.2,75.7z M86.1,43.2c-8.3-4.4-16.2-8.5-24.3-12.8v25.4
		C70.3,51.2,79.3,46.9,86.1,43.2C86.1,43.1,86.1,43.2,86.1,43.2z"/>
</g>
</svg>
